<svg height="512" viewBox="0 0 50 60" width="512" xmlns="http://www.w3.org/2000/svg"><g id="Page-1" fill="none" fill-rule="evenodd"><g id="070---Album" fill-rule="nonzero"><path id="Shape" d="m49 2v47h-40v-48h39c.5522847 0 1 .44771525 1 1z" fill="#f44335"/><path id="Shape" d="m48 1h-3c.5522847 0 1 .44771525 1 1v47h3v-47c0-.55228475-.4477153-1-1-1z" fill="#c81e1e"/><path id="Shape" d="m9 1v48h-3c-2.76142375 0-5 2.2385763-5 5v-48c0-2.76142375 2.23857625-5 5-5z" fill="#f44335"/><path id="Shape" d="m49 49v9c0 .5522847-.4477153 1-1 1h-3v-10z" fill="#c81e1e"/><path id="Shape" d="m45 49v10h-39c-2.76142375 0-5-2.2385763-5-5s2.23857625-5 5-5z" fill="#ffe0b2"/><path id="Shape" d="m45 30v5c0 .5522847-.4477153 1-1 1h-21l8.85-8.85 5.15-5.15z" fill="#008a00"/><path id="Shape" d="m37 22-1.5 1.5 6.5 6.5v5c0 .5522847-.4477153 1-1 1h3c.5522847 0 1-.4477153 1-1v-5z" fill="#007900"/><path id="Shape" d="m31.85 27.15-8.85 8.85h-9c-.5522847 0-1-.4477153-1-1v-3.25l11-13.75z" fill="#60a917"/><path id="Shape" d="m24 18-1.448 1.81 6.298 7.34-8.85 8.85h3l8.85-8.85z" fill="#549414"/><path id="Shape" d="m45 9v21l-8-8-5.15 5.15-7.85-9.15-11 13.75v-22.75c0-.55228475.4477153-1 1-1h30c.5522847 0 1 .44771525 1 1z" fill="#02a9f4"/><path id="Shape" d="m23 36-1 1" fill="#60a917"/><circle id="Oval" cx="35" cy="15" fill="#ffdc00" r="3"/><g fill="#000"><path id="Shape" d="m6 0c-3.31233757.00330738-5.99669262 2.68766243-6 6v48c.00330738 3.3123376 2.68766243 5.9966926 6 6h42c1.1045695 0 2-.8954305 2-2v-56c0-1.1045695-.8954305-2-2-2zm0 2h42v46h-38v-42c0-.55228475-.44771525-1-1-1s-1 .44771525-1 1v42h-2c-1.47801186.0003999-2.90331472.5491415-4 1.54v-43.54c0-2.209139 1.790861-4 4-4zm-4 52c0-2.209139 1.790861-4 4-4h38v8h-38c-2.209139 0-4-1.790861-4-4zm46 4h-2v-8h2z"/><path id="Shape" d="m12 53h-5c-.55228475 0-1 .4477153-1 1s.44771525 1 1 1h5c.5522847 0 1-.4477153 1-1s-.4477153-1-1-1z"/><path id="Shape" d="m41 53h-25c-.5522847 0-1 .4477153-1 1s.4477153 1 1 1h25c.5522847 0 1-.4477153 1-1s-.4477153-1-1-1z"/><path id="Shape" d="m14 37h30c1.1045695 0 2-.8954305 2-2v-26c0-1.1045695-.8954305-2-2-2h-30c-1.1045695 0-2 .8954305-2 2v26c0 1.1045695.8954305 2 2 2zm0-28h30v26h-30z"/><path id="Shape" d="m37.707 21.293c-.3904999-.3903819-1.0235001-.3903819-1.414 0l-4.387 4.387-7.147-8.331c-.1979885-.2209833-.4802988-.3477867-.777-.349-.2974526.0052809-.5771097.142727-.763.375l-7 8.75c-.223291.2790244-.2807626.655978-.1507659.9888659s.4277123.5711365.781.625c.3532878.0538634.7084749-.0848415.9317659-.3638659l6.246-7.808 6.461 7.533-1.2 1.2c-.2599566.2510745-.3642126.6228779-.2726972.9725073.0915155.3496295.3645604.6226744.7141899.7141899.3496294.0915154.7214328-.0127406.9725073-.2726972l6.298-6.3 3.293 3.293c.3923789.3789722 1.0160848.3735524 1.4018186-.0121814s.3911536-1.0094397.0121814-1.4018186z"/><path id="Shape" d="m35 19c2.209139 0 4-1.790861 4-4s-1.790861-4-4-4-4 1.790861-4 4 1.790861 4 4 4zm0-6c1.1045695 0 2 .8954305 2 2s-.8954305 2-2 2-2-.8954305-2-2 .8954305-2 2-2z"/><path id="Shape" d="m40 39h-22c-.5522847 0-1 .4477153-1 1s.4477153 1 1 1h22c.5522847 0 1-.4477153 1-1s-.4477153-1-1-1z"/><path id="Shape" d="m37 43h-16c-.5522847 0-1 .4477153-1 1s.4477153 1 1 1h16c.5522847 0 1-.4477153 1-1s-.4477153-1-1-1z"/></g></g></g></svg>