<?xml version="1.0" encoding="iso-8859-1"?>
<!-- Generator: Adobe Illustrator 19.0.0, SVG Export Plug-In . SVG Version: 6.00 Build 0)  -->
<svg version="1.1" id="Capa_1" xmlns="http://www.w3.org/2000/svg" xmlns:xlink="http://www.w3.org/1999/xlink" x="0px" y="0px"
	 viewBox="0 0 511.991 511.991" style="enable-background:new 0 0 511.991 511.991;" xml:space="preserve">
<path style="fill:#838387;" d="M273.05,258.064l78.095-20.281c6.546-1.7,11.806-6.562,14.014-12.956l32.096-92.969
	c3.64-10.543-1.957-22.04-12.5-25.68c-10.541-3.646-22.04,1.957-25.68,12.5l-28.563,82.734l-67.615,17.56
	c-10.796,2.804-17.274,13.827-14.47,24.623C251.227,254.376,262.246,260.871,273.05,258.064z"/>
<path style="fill:#BA6746;" d="M262.897,218.969l10.153,39.094c-10.804,2.807-21.823-3.688-24.623-14.47
	C245.623,232.798,252.101,221.774,262.897,218.969z"/>
<polygon style="fill:#FFFFFF;" points="273.05,258.064 282.718,255.552 272.726,216.417 262.897,218.969 "/>
<path style="fill:#5F6E9B;" d="M208.491,140.38c2.256-16.477-9.273-31.662-25.748-33.918l-53.202-7.285
	c-16.477-2.256-31.662,9.273-33.918,25.748L77.374,258.2c-1.799,13.143-1.953,26.459-0.456,39.64l9.052,79.748l-43.789,100.48
	c-5.348,12.269,0.265,26.551,12.534,31.899c3.153,1.374,6.437,2.025,9.67,2.024c9.348,0,18.255-5.441,22.229-14.558l46.279-106.193
	c1.633-3.748,2.292-7.848,1.915-11.918l-11.18-94.625l63.907,8.75L208.491,140.38z"/>
<path style="fill:#414B82;" d="M182.009,511.99c-12.838,0-23.548-10.082-24.185-23.046l-5.662-115.219l-17.27-100.066
	c-2.277-13.189,6.571-25.726,19.76-28.003c13.187-2.278,25.726,6.571,28.003,19.76l17.521,101.523
	c0.167,0.97,0.276,1.949,0.324,2.932l5.734,116.696c0.657,13.369-9.648,24.738-23.016,25.394
	C182.814,511.981,182.41,511.99,182.009,511.99z"/>
<path style="fill:#1E2D64;" d="M77.374,258.2c-0.907,6.624-1.393,13.29-1.463,19.962l47.716,6.533l0,0l63.907,8.75l6.986-51.022
	l13.972-102.043c0.212-1.545,0.302-3.078,0.278-4.591c-0.156-10.083-5.374-19.235-13.496-24.615
	c-1.219-0.807-2.501-1.529-3.843-2.156c-1.342-0.628-2.741-1.16-4.191-1.59c-1.45-0.429-2.952-0.754-4.496-0.966l-53.202-7.285
	c-5.149-0.705-10.172-0.063-14.714,1.654c-3.179,1.203-6.122,2.932-8.708,5.097c-0.739,0.619-1.448,1.273-2.126,1.96
	c-0.339,0.344-0.67,0.696-0.992,1.056c-2.257,2.52-4.103,5.436-5.419,8.655c-0.376,0.92-0.708,1.865-0.994,2.831
	c-0.429,1.45-0.754,2.952-0.966,4.496L77.374,258.2z"/>
<circle style="fill:#FFB69E;" cx="188.134" cy="44.572" r="44.572"/>
<path style="fill:#414B82;" d="M238.941,258.064l-78.095-20.281c-6.546-1.7-11.805-6.562-14.014-12.956l-32.096-92.969
	c-3.64-10.543,1.957-22.04,12.5-25.68c10.541-3.646,22.04,1.957,25.68,12.5l28.563,82.734l67.615,17.56
	c10.796,2.804,17.274,13.827,14.47,24.623C260.764,254.376,249.746,260.871,238.941,258.064z"/>
<path style="fill:#FFB69E;" d="M249.094,218.969l-10.153,39.094c10.804,2.807,21.823-3.688,24.623-14.47
	C266.369,232.798,259.89,221.774,249.094,218.969z"/>
<polygon style="fill:#FFFFFF;" points="238.941,258.064 229.273,255.552 239.265,216.417 249.094,218.969 "/>
<path style="fill:#93CBFF;" d="M303.501,140.38c-2.256-16.477,9.273-31.662,25.748-33.918l53.202-7.285
	c16.477-2.256,31.662,9.273,33.918,25.748L434.617,258.2c1.799,13.143,1.953,26.459,0.456,39.64l-9.052,79.748l43.789,100.48
	c5.348,12.269-0.265,26.551-12.534,31.899c-3.153,1.374-6.437,2.025-9.67,2.024c-9.348,0-18.255-5.441-22.229-14.558
	l-46.279-106.193c-1.633-3.748-2.292-7.848-1.915-11.918l11.18-94.625l-63.907,8.75L303.501,140.38z"/>
<path style="fill:#78BEFF;" d="M329.983,511.99c12.838,0,23.548-10.082,24.185-23.046l5.662-115.219l17.27-100.066
	c2.277-13.189-6.571-25.726-19.76-28.003c-13.187-2.278-25.726,6.571-28.003,19.76l-17.521,101.523
	c-0.167,0.97-0.276,1.949-0.324,2.932l-5.734,116.696c-0.657,13.369,9.648,24.738,23.016,25.394
	C329.178,511.981,329.582,511.99,329.983,511.99z"/>
<path style="fill:#838387;" d="M434.617,258.2c0.907,6.624,1.393,13.29,1.463,19.962l-47.716,6.533l0,0l-63.907,8.75l-6.986-51.022
	L303.5,140.381c-2.25-16.433,9.23-31.656,25.748-33.918l53.202-7.285c13.836-1.894,26.859,5.942,31.958,18.422
	C417.093,124.165,415.491,120.845,434.617,258.2z"/>
<circle style="fill:#BA6746;" cx="323.858" cy="44.572" r="44.572"/>
<path style="fill:#919196;" d="M440.853,282.39l20.029-78.16c1.679-6.551-0.033-13.507-4.561-18.533l-65.841-73.065
	c-7.466-8.287-20.236-8.95-28.523-1.483c-8.291,7.461-8.95,20.236-1.483,28.523l58.592,65.021l-17.341,67.671
	c-2.768,10.805,3.745,21.808,14.55,24.576C427.068,299.705,438.083,293.204,440.853,282.39z"/>
<path style="fill:#BA6746;" d="M401.727,272.364c-2.768,10.805,3.745,21.808,14.55,24.576c10.791,2.765,21.807-3.736,24.576-14.55
	L401.727,272.364z"/>
<polygon style="fill:#FFFFFF;" points="440.853,282.39 401.727,272.364 404.314,262.268 443.398,272.461 "/>
<g>
</g>
<g>
</g>
<g>
</g>
<g>
</g>
<g>
</g>
<g>
</g>
<g>
</g>
<g>
</g>
<g>
</g>
<g>
</g>
<g>
</g>
<g>
</g>
<g>
</g>
<g>
</g>
<g>
</g>
</svg>
